<svg preserveAspectRatio="none" overflow="visible" viewBox="0 0 131 137" fill="none" xmlns="http://www.w3.org/2000/svg" display="block"><circle cx="65.085" cy="67.258" r="65.085" fill="var(--fill-0, #2C3240)"/><path d="M45.96 55.176v26.606h-1.213V54.485l1.214.691zm-2.617-1.495v28.1h-1.33V52.923l1.33.76zm-2.757-1.561v29.662h-1.214V51.428l1.214.692zm6.825 2.203l-.09-.053-9.152-5.24-.271-.154v32.883h-8.79V54.53l5.585-3.211.091-.052V39.72l15.62-6.975 12.239 5.481v1.444l-12.165-5.45-.254-.114v2.58l.107.048 7.987 3.584h-3.217l-4.623-2.075-.254-.114v4.09h9.882L72.14 72.06h-.185l.312.31.022.022.105-.07v.1h.33l.046-.114 12.025-30.11H99.76v1.709c-2.218.02-3.598.42-4.396 1.645-.403.62-.645 1.434-.789 2.475-.143 1.042-.19 2.326-.19 3.896v20.11c0 1.714.05 3.062.206 4.12.156 1.056.423 1.842.872 2.419.453.582 1.076.931 1.902 1.145.784.203 1.763.285 2.975.328v1.715H81.054v-1.715c1.212-.043 2.193-.128 2.98-.328.83-.212 1.457-.553 1.916-1.113.456-.556.73-1.31.89-2.314.162-1.005.215-2.278.215-3.888V47.95h-.558l-.046.112-14.017 34.203h-3.63L54.326 48.06l-.047-.11h-.51v24.084c0 1.713.05 3.06.207 4.118.156 1.057.423 1.843.872 2.42.452.582 1.075.931 1.902 1.145.784.203 1.763.285 2.975.328v1.715H47.41V54.322z" fill="var(--fill-0, white)" stroke="var(--stroke-0, #2C3240)" stroke-width=".362"/><path d="M14.355 55.708c-.135.572-.392 1.04-.771 1.406-.383.365-.848.61-1.394.734-.546.124-1.133.113-1.761-.035-.628-.147-1.159-.398-1.593-.752a2.884 2.884 0 01-.917-1.276c-.18-.497-.204-1.032-.07-1.603.066-.28.176-.535.332-.77.156-.233.343-.427.56-.581l-.364-.518.048-.207 1.732.407-.055.236a1.603 1.603 0 00-.9.092 1.72 1.72 0 00-.684.522c-.184.23-.312.495-.383.797-.086.366-.075.695.031.987.104.292.279.549.524.77.245.22.539.408.88.563a5.9 5.9 0 001.086.366c.383.09.761.141 1.136.155a3.39 3.39 0 001.038-.113c.318-.089.59-.24.815-.455.223-.215.377-.506.463-.872.064-.27.082-.524.054-.763a1.832 1.832 0 00-.19-.65 1.594 1.594 0 00-.404-.5 1.603 1.603 0 00-.574-.31l.056-.236 1.732.407-.049.207-.573.257c.128.238.212.508.252.808.036.3.017.609-.057.927zm-.621-4.821a3.217 3.217 0 01-.692-.338 3.09 3.09 0 01-.6-.495 1.78 1.78 0 01-.375-.592.913.913 0 01-.007-.622.808.808 0 01.217-.352.597.597 0 01.607-.14c.14.048.245.131.314.25a.439.439 0 01.03.381.527.527 0 01-.232.302.414.414 0 01-.349.027c-.148-.051-.242-.138-.282-.262a.586.586 0 01.123-.573.427.427 0 01.184-.12.324.324 0 01.21.003l-.078.226a.283.283 0 00-.208.006.485.485 0 00-.19.137.637.637 0 00-.123.215.721.721 0 00.019.479c.062.174.167.35.313.53a2.668 2.668 0 001.164.807l-.045.131zm-2.003-.834l3.55 1.218.214-.624.226.078-.65 1.892-.225-.078.19-.554-3.325-1.14-.19.554-.225-.078.435-1.268zm5.559-3.099a1.994 1.994 0 01-.625.806c-.271.2-.584.317-.937.35-.354.031-.73-.041-1.127-.216-.398-.175-.706-.397-.925-.667a1.694 1.694 0 01-.388-.896 1.905 1.905 0 01.167-.994c.168-.38.376-.65.625-.805.25-.159.52-.233.809-.223.289.01.578.08.866.206l-1.197 2.72-.218-.095.826-1.879a4.439 4.439 0 00-.397-.151 1.691 1.691 0 00-.428-.084.706.706 0 00-.389.075.645.645 0 00-.283.33.805.805 0 00-.066.517c.038.159.12.307.246.444.127.135.286.261.479.377a5.816 5.816 0 001.29.559c.215.056.416.081.602.075.187-.01.353-.06.498-.151a.973.973 0 00.35-.443c.145-.328.187-.63.125-.907a1.467 1.467 0 00-.4-.727l.111-.254c.265.24.443.531.535.875.09.343.04.729-.15 1.158zm2.693-5.329a.812.812 0 01-.25.283.604.604 0 01-.345.112.854.854 0 01-.432-.125l-1.716-.95a2.837 2.837 0 00-.536-.231.827.827 0 00-.494-.021c-.154.044-.286.167-.398.37-.058.104-.109.22-.153.347a1.443 1.443 0 00-.076.38.852.852 0 00.042.345c.038.104.11.184.213.242l-.14.254a.438.438 0 01-.235-.293.475.475 0 01.042-.344.528.528 0 01.27-.237.397.397 0 01.372.027c.152.084.236.192.252.323a.547.547 0 01-.059.35.496.496 0 01-.27.236c-.114.04-.24.022-.377-.054a.563.563 0 01-.255-.29 1.077 1.077 0 01-.07-.45 2.02 2.02 0 01.09-.53c.054-.186.128-.365.223-.537.194-.35.4-.578.617-.685.22-.11.44-.141.663-.095.223.045.437.123.643.237l1.826 1.01a.554.554 0 00.222.074c.067.004.125-.038.174-.127a.399.399 0 00.038-.212.52.52 0 00-.058-.236l.248.009c.045.11.066.236.064.377a.964.964 0 01-.135.441zM19 43.402c-.182.33-.411.546-.687.651-.278.101-.56.072-.85-.088-.338-.187-.526-.483-.56-.885-.038-.404.092-.876.39-1.415l.488-.881.178.099-.487.88c-.123.223-.181.43-.173.619a.945.945 0 00.158.494 1.064 1.064 0 00.741.453.688.688 0 00.364-.05.624.624 0 00.284-.28.834.834 0 00.088-.481 1.175 1.175 0 00-.211-.568 1.56 1.56 0 00-.568-.498l.065-.118c.289.16.516.353.681.58.164.223.258.464.28.72a1.33 1.33 0 01-.18.768zm2.45-4.165c-.13.198-.274.32-.43.366a.817.817 0 01-.47-.004 1.81 1.81 0 01-.434-.209l-3.247-2.146a1.21 1.21 0 00.164-.397 1.45 1.45 0 00.047-.394l3.584 2.368c.18.12.316.178.405.174.09-.006.17-.06.239-.164a.516.516 0 00.063-.38 1.438 1.438 0 00-.136-.423l.222-.092c.113.217.18.429.199.636.019.207-.05.428-.206.665zm-3.966-.916l-.2-.131 1.25-1.89.199.132-1.25 1.89zm1.293-4.982a.517.517 0 01-.732.101.498.498 0 01-.2-.34.504.504 0 01.096-.389.495.495 0 01.346-.201c.142-.02.27.012.383.097a.516.516 0 01.107.732zm1.456.604l3.003 2.252.351-.469.191.143-1.172 1.562-.19-.143.35-.468-2.81-2.11-.352.47-.191-.144.82-1.093zm1.773-2.234l2.82 2.478.38-.434.18.158-1.267 1.44-.179-.157.387-.44-2.64-2.32-.387.44-.179-.158.885-1.007zm2.66-1.18l1.904 1.673.39-.443.179.157-1.272 1.447-.18-.157.387-.44-1.795-1.578a4.724 4.724 0 00-.49-.384.792.792 0 00-.397-.153c-.119-.004-.23.053-.336.172a.919.919 0 00-.227.535c-.021.204-.002.414.06.63.062.212.152.415.269.606.116.187.243.341.38.461l-.09.123a2.574 2.574 0 01-.42-.496 2.847 2.847 0 01-.336-.682 1.798 1.798 0 01-.088-.754 1.24 1.24 0 01.323-.71c.22-.25.425-.398.617-.445a.809.809 0 01.566.059c.182.087.368.213.557.38zm6.004 1.106c-.196.18-.395.334-.598.46a2.16 2.16 0 01-.597.268 1.158 1.158 0 01-.556.019.913.913 0 01-.472-.285.932.932 0 01-.246-.452 1.11 1.11 0 01.014-.457 1.455 1.455 0 01.391-.676l.13-.12a.98.98 0 00-.07.586c.037.194.13.371.28.533a.894.894 0 00.453.266c.18.041.374.028.579-.04a1.72 1.72 0 00.616-.387 2.26 2.26 0 00.383-.455 1.45 1.45 0 00.206-.48 1.01 1.01 0 00-.26-.919.69.69 0 00-.375-.22.813.813 0 00-.44.04 1.262 1.262 0 00-.435.273l-.223.206-.312.29-.226.209c-.286.265-.552.438-.796.519a.564.564 0 01-.636-.169.682.682 0 01-.184-.397 1.108 1.108 0 01.062-.482c.06-.17.145-.337.258-.5.113-.164.244-.315.395-.455l.106.133a1.439 1.439 0 00-.203.24c-.07.097-.127.2-.175.31a.885.885 0 00-.079.305.293.293 0 00.074.227c.103.11.222.124.358.04.134-.084.289-.207.463-.368l.21-.195c.066-.065.13-.127.194-.186a7.56 7.56 0 01.185-.177c.119-.11.25-.213.395-.307.147-.097.305-.163.475-.197a.956.956 0 01.532.045c.188.066.382.208.583.424.19.206.309.421.356.646.046.225.038.45-.026.675a2.145 2.145 0 01-.304.642c-.14.208-.3.397-.486.568zm-2.617-2.569a2.06 2.06 0 01-.444.312 1.601 1.601 0 01-.529.17c-.185.026-.37.01-.554-.049a1.276 1.276 0 01-.52-.357 1.25 1.25 0 01-.314-.543 1.193 1.193 0 01-.006-.556 1.6 1.6 0 01.21-.514 1.963 1.963 0 01.783-.725c.165-.087.338-.14.518-.162a1.15 1.15 0 01.542.06c.18.063.35.182.514.358.163.176.27.357.32.543a1.2 1.2 0 01.02.544 1.504 1.504 0 01-.201.506 1.964 1.964 0 01-.338.414zm-.162-.175a.648.648 0 00.218-.39.849.849 0 00-.08-.458 1.8 1.8 0 00-.327-.473 1.796 1.796 0 00-.446-.36.82.82 0 00-.448-.113.636.636 0 00-.409.184.635.635 0 00-.214.394.848.848 0 00.074.457c.072.158.18.316.326.473.146.157.286.285.421.385a.685.685 0 00.419.145c.143-.007.299-.088.466-.244zm.89-2.539a.466.466 0 01-.297.121c-.119.008-.226-.04-.323-.144-.098-.106-.134-.213-.107-.32a.532.532 0 01.155-.274.539.539 0 01.287-.136c.114-.023.21.01.291.097l-.172.159a.419.419 0 00-.29-.128.463.463 0 00-.352.143.924.924 0 00-.288.71c.002.169.063.36.184.576l-.21.023a1.278 1.278 0 01-.191-.622c-.001-.192.034-.36.105-.506.07-.146.146-.26.231-.338a.74.74 0 01.342-.186.728.728 0 01.362.001.55.55 0 01.286.162c.125.136.175.261.148.377a.548.548 0 01-.162.285zm3.589-7.272l.138.195-.708.502 2.77 3.912c.054.15.108.327.163.53.054.201.088.412.1.63a1.52 1.52 0 01-.084.623 1.08 1.08 0 01-.412.515 1.022 1.022 0 01-1.049.126.882.882 0 01-.35-.284.63.63 0 01-.12-.292.484.484 0 01.198-.454.525.525 0 01.21-.086.47.47 0 01.252.025.5.5 0 01.232.192c.068.097.101.19.098.281a.43.43 0 01-.076.245.61.61 0 01-.195.176.176.176 0 01-.077-.004.19.19 0 01-.078-.057.828.828 0 00.242.079c.087.012.178.01.272-.007a.733.733 0 00.266-.12c.17-.12.266-.255.287-.405.024-.151-.02-.336-.132-.555a6.712 6.712 0 00-.516-.825l-2.67-3.771-.921.651-.138-.194 2.298-1.628zm7.239 3.302a.813.813 0 01-.36.116.605.605 0 01-.353-.079.855.855 0 01-.309-.326l-.996-1.69a2.833 2.833 0 00-.343-.472.826.826 0 00-.416-.269c-.154-.04-.331-.001-.53.116a2.21 2.21 0 00-.308.222 1.45 1.45 0 00-.258.288.854.854 0 00-.14.319.45.45 0 00.061.317l-.25.147a.438.438 0 01-.053-.371.476.476 0 01.21-.276.528.528 0 01.353-.067c.13.015.232.085.307.213.088.15.106.285.053.406a.547.547 0 01-.228.27.495.495 0 01-.353.068c-.119-.024-.218-.104-.297-.238a.563.563 0 01-.073-.38c.021-.14.078-.281.17-.422a2.01 2.01 0 01.346-.411c.14-.133.295-.25.465-.35.343-.202.636-.294.879-.276a.988.988 0 01.619.255c.17.151.314.328.433.53l1.06 1.798a.551.551 0 00.154.176c.056.038.127.03.214-.02a.388.388 0 00.14-.164.518.518 0 00.07-.232l.21.133a.966.966 0 01-.137.358.965.965 0 01-.34.311zm-1.75 1.031c-.323.191-.631.261-.922.212-.29-.054-.52-.223-.687-.507-.197-.334-.208-.683-.033-1.048.173-.368.525-.708 1.055-1.02l.867-.512.104.176-.867.511c-.22.13-.374.278-.463.445a.945.945 0 00-.115.505c.011.168.057.32.138.458.074.124.163.228.269.31.104.08.217.127.34.142a.623.623 0 00.386-.097.834.834 0 00.321-.37c.084-.17.12-.37.107-.597a1.562 1.562 0 00-.237-.717l.116-.068c.168.284.265.566.292.845a1.41 1.41 0 01-.124.763 1.33 1.33 0 01-.546.57zm3.822.164l-.101-.217.53-.248-2.41-5.148-.53.248-.101-.216 1.238-.58.476 1.019a1.947 1.947 0 01.12-1.014 1.24 1.24 0 01.644-.67c.27-.127.56-.172.871-.136.314.036.612.158.895.367.286.208.52.509.705.902.184.392.265.767.242 1.122-.02.351-.117.66-.29.926a1.58 1.58 0 01-.66.583 1.24 1.24 0 01-.928.065 1.978 1.978 0 01-.857-.562l1.293 2.763.526-.246.102.216-1.765.826zm1.343-3.273a.835.835 0 00.422-.418c.086-.191.111-.421.074-.691a3.258 3.258 0 00-.3-.938c-.164-.351-.34-.627-.526-.827-.184-.201-.376-.329-.576-.382a.835.835 0 00-.592.057.995.995 0 00-.456.448c-.11.208-.163.456-.159.745.006.285.086.594.242.927.156.332.342.593.558.783.22.188.445.308.676.359a.997.997 0 00.636-.063zm5.879-1.992a.813.813 0 01-.375.045.604.604 0 01-.332-.145.855.855 0 01-.24-.38l-.652-1.85a2.83 2.83 0 00-.246-.53.827.827 0 00-.356-.344c-.144-.069-.325-.065-.543.012-.112.04-.227.092-.345.158a1.446 1.446 0 00-.309.233.853.853 0 00-.198.286.45.45 0 00-.001.323l-.274.096a.438.438 0 01.02-.375.476.476 0 01.259-.229.528.528 0 01.36.002c.124.04.21.128.26.268.057.163.048.3-.027.409a.547.547 0 01-.276.221.496.496 0 01-.36-.002c-.111-.046-.193-.143-.245-.29a.563.563 0 01.002-.388c.048-.133.13-.26.248-.381a1.97 1.97 0 01.42-.337 2.56 2.56 0 01.522-.253c.376-.133.682-.167.916-.102a.989.989 0 01.558.37c.138.181.245.382.323.603l.694 1.969a.56.56 0 00.117.202c.047.048.119.055.215.021a.4.4 0 00.169-.133.519.519 0 00.113-.215l.18.172a.965.965 0 01-.203.324.964.964 0 01-.394.24zm-1.916.675c-.354.125-.67.135-.946.03-.274-.11-.466-.319-.576-.63-.129-.366-.072-.71.17-1.035.24-.327.65-.593 1.232-.797l.95-.335.067.192-.95.335c-.24.084-.42.2-.54.347a.945.945 0 00-.21.474c-.021.167-.005.325.048.475.048.137.116.255.203.356a.688.688 0 00.307.205c.12.037.253.03.398-.02a.833.833 0 00.386-.302c.115-.151.188-.34.22-.565a1.56 1.56 0 00-.094-.749l.127-.045c.11.311.15.607.123.886a1.41 1.41 0 01-.269.725 1.33 1.33 0 01-.646.453zm3.549-5.407l.9 3.644.56-.139.058.232-1.862.46-.057-.232.569-.14-.844-3.412-.569.14-.057-.231 1.302-.322zm2.858.55l.608 2.46.573-.142.057.232-1.87.462-.058-.232.569-.14-.574-2.321a4.712 4.712 0 00-.182-.594.791.791 0 00-.24-.353c-.095-.071-.22-.088-.374-.05a.92.92 0 00-.491.31 1.652 1.652 0 00-.31.55c-.07.21-.112.428-.126.652-.01.22.005.419.05.596l-.145.049a2.577 2.577 0 01-.062-.647c.004-.25.042-.501.114-.752.074-.254.194-.477.358-.67a1.24 1.24 0 01.67-.397c.323-.08.576-.085.76-.014.188.07.332.194.432.372.1.175.18.384.24.629zm1.899-1.844a3.776 3.776 0 00-.13-.56 2.234 2.234 0 00-.148-.353c-.049-.097-.099-.196-.151-.295a2.476 2.476 0 01-.175-.464l-.013-.077c-.029-.168-.01-.303.054-.405a.396.396 0 01.285-.189.396.396 0 01.331.085c.095.075.157.197.185.365l.014.077a2.462 2.462 0 01-.013.495l-.05.33a2.638 2.638 0 00-.02.381 3.8 3.8 0 00.062.57l-.231.04zm2.291 3.989l-.143-1.285.241-.027a1.377 1.377 0 00.764.823 1.214 1.214 0 00.99-.05.78.78 0 00.303-.264.596.596 0 00.082-.398.58.58 0 00-.207-.409 1.205 1.205 0 00-.444-.221 8.16 8.16 0 00-.557-.139 3.75 3.75 0 01-.56-.178 1.224 1.224 0 01-.45-.316c-.124-.138-.199-.329-.226-.573-.02-.184 0-.365.061-.544a.985.985 0 01.33-.456c.16-.128.377-.208.65-.238.187-.021.364-.009.532.037.168.042.32.107.454.193l.255-.373.212-.023.133 1.203-.241.027a.967.967 0 00-.24-.436 1.239 1.239 0 00-1.069-.379.833.833 0 00-.333.107.648.648 0 00-.232.227.481.481 0 00-.062.308.478.478 0 00.21.356c.123.085.276.154.46.207.183.052.377.103.58.153.203.047.398.112.585.193.189.078.346.187.473.327.129.14.206.325.232.555a1.214 1.214 0 01-.558 1.189c-.198.126-.43.204-.694.234-.19.02-.375.008-.554-.04a1.662 1.662 0 01-.492-.224l-.278.411-.207.023zm6.763-.587l-.003-4.439c0-.379.064-.732.19-1.059.13-.33.322-.594.573-.794.255-.203.57-.304.946-.304.234 0 .43.043.586.13a.918.918 0 01.36.33c.081.13.122.262.122.398 0 .177-.05.311-.152.404a.499.499 0 01-.347.135.615.615 0 01-.221-.044.467.467 0 01-.187-.151.471.471 0 01-.074-.278c0-.153.053-.272.16-.356a.525.525 0 01.326-.126c.075 0 .15.017.225.052.076.032.138.08.187.143a.34.34 0 01.074.221h-.234a.484.484 0 00-.105-.294.765.765 0 00-.29-.235.95.95 0 00-.43-.09c-.231 0-.415.063-.551.19-.136.125-.233.312-.29.56a4.095 4.095 0 00-.087.92l.003 4.687h-.781zm-.755 0v-.238l2.555-.002v.24h-2.555zm-.002-3.753v-.238l2.729-.002v.239l-2.73.001zm4.799-1.665a.516.516 0 01-.488-.556.497.497 0 01.174-.354.504.504 0 01.377-.133.495.495 0 01.359.178.497.497 0 01.13.373.517.517 0 01-.552.493zm.297 1.549l-.229 3.746.585.036-.014.238-1.95-.119.015-.238.585.036.214-3.508-.585-.036.014-.238 1.365.083zm2.851.251l-.516 3.718.572.08-.033.236-1.9-.264.033-.236.58.08.483-3.481-.58-.08.033-.237 1.328.184zm2.45 1.571l-.349 2.51.585.081-.033.237-1.908-.265.033-.237.58.081.328-2.368c.034-.24.05-.447.051-.62a.791.791 0 00-.091-.415c-.062-.102-.172-.164-.33-.186a.92.92 0 00-.57.105 1.651 1.651 0 00-.493.396c-.143.17-.263.356-.358.559-.092.2-.15.39-.175.571l-.153-.008c.026-.183.087-.39.183-.623.096-.232.225-.45.385-.656a1.8 1.8 0 01.58-.489c.227-.12.484-.16.77-.12.33.045.567.135.712.269a.808.808 0 01.263.505c.028.2.024.424-.01.673zm3.265 3.597a1.993 1.993 0 01-.903-.474 1.849 1.849 0 01-.51-.86c-.093-.344-.087-.727.015-1.149.102-.421.267-.764.495-1.027.228-.266.5-.446.814-.54.314-.092.65-.096 1.007-.009.405.098.706.256.903.474.2.218.32.47.361.757.04.287.024.583-.05.89l-2.89-.702.057-.232 1.995.485c.031-.13.057-.269.079-.419.021-.15.024-.294.007-.435a.706.706 0 00-.142-.37.634.634 0 00-.375-.22.805.805 0 00-.52.025.995.995 0 00-.394.32 2.209 2.209 0 00-.287.537 6 6 0 00-.204.674 4.902 4.902 0 00-.12.695 2.09 2.09 0 00.032.606c.042.182.12.337.236.463a.973.973 0 00.497.268c.349.085.654.073.915-.037.262-.109.477-.283.645-.522l.27.066a1.78 1.78 0 01-.768.68c-.322.148-.71.167-1.165.056zm2.658.688l.405-1.228.23.077a1.378 1.378 0 00.352 1.066 1.215 1.215 0 00.92.368.78.78 0 00.386-.115.596.596 0 00.24-.327.58.58 0 00-.017-.458 1.204 1.204 0 00-.311-.386 8.196 8.196 0 00-.449-.359 3.744 3.744 0 01-.436-.395 1.223 1.223 0 01-.277-.475c-.054-.177-.043-.382.034-.615a1.23 1.23 0 01.283-.469.985.985 0 01.489-.277c.2-.05.43-.032.69.054.179.06.335.144.469.256.135.108.245.23.332.365l.387-.233.202.067-.38 1.15-.23-.077a.967.967 0 00-.037-.496 1.238 1.238 0 00-.813-.79.834.834 0 00-.348-.041.649.649 0 00-.305.109.48.48 0 00-.185.254.478.478 0 00.043.412c.076.128.186.255.331.379.145.124.3.25.464.381.165.128.315.267.45.419.14.15.238.314.295.494a.948.948 0 01-.02.601c-.082.245-.21.438-.389.58-.175.144-.38.233-.614.268a1.599 1.599 0 01-.729-.076 1.516 1.516 0 01-.487-.266 1.665 1.665 0 01-.354-.41l-.424.258-.197-.065zm5.059 1.788c-.22-.09-.367-.208-.442-.352a.817.817 0 01-.086-.462c.02-.164.061-.32.122-.466l1.486-3.598c.12.05.26.078.42.085.16.006.293-.003.397-.029l-1.64 3.97c-.082.2-.114.345-.093.431.023.088.092.156.207.203.112.047.24.043.385-.01.144-.053.273-.125.389-.215l.133.2a1.721 1.721 0 01-.586.317c-.2.059-.43.034-.692-.074zm.14-4.069l.091-.22 2.094.864-.091.22-2.094-.864zm6.434 7.36a.813.813 0 01-.282-.252.604.604 0 01-.11-.345.855.855 0 01.126-.431l.956-1.713c.102-.182.18-.36.234-.535a.827.827 0 00.023-.494c-.044-.154-.166-.287-.369-.4a2.199 2.199 0 00-.346-.153 1.442 1.442 0 00-.38-.078.853.853 0 00-.345.04.45.45 0 00-.243.213l-.254-.142a.438.438 0 01.295-.233.476.476 0 01.344.043c.108.06.187.15.236.27a.397.397 0 01-.029.373c-.084.151-.192.235-.324.25a.546.546 0 01-.349-.06.496.496 0 01-.236-.27c-.039-.115-.02-.24.056-.377a.564.564 0 01.291-.255c.132-.052.282-.074.45-.067.17.006.346.036.53.093.185.053.364.128.536.224.348.195.576.401.682.62.11.22.14.44.093.662a2.205 2.205 0 01-.24.642l-1.017 1.822a.552.552 0 00-.074.222c-.004.067.038.126.126.175.053.03.124.043.212.039a.52.52 0 00.236-.057l-.01.248a.966.966 0 01-.377.062.966.966 0 01-.44-.136zm-1.773-.99c-.328-.183-.544-.413-.648-.69-.1-.278-.07-.56.09-.849.19-.338.486-.524.889-.557.404-.037.875.096 1.413.396l.88.49-.1.179-.88-.491c-.222-.124-.427-.183-.617-.176a.946.946 0 00-.494.157 1.026 1.026 0 00-.325.35c-.07.126-.115.256-.132.388-.017.13 0 .252.049.366.052.115.145.21.278.284a.834.834 0 00.482.09c.19-.013.38-.083.569-.209.192-.125.358-.313.5-.566l.117.066c-.16.288-.355.514-.583.678a1.41 1.41 0 01-.721.278c-.254.021-.51-.04-.767-.184zm1.78 3.383l.137-.196.481.334 3.24-4.67-.481-.334.135-.196 1.124.779-.64.923c.299-.229.61-.364.936-.406.326-.045.628.028.903.22.245.17.43.398.554.685.128.289.172.608.133.958-.036.352-.178.706-.425 1.063-.247.356-.53.614-.848.773-.315.16-.63.23-.947.215a1.58 1.58 0 01-.836-.279 1.241 1.241 0 01-.523-.769 1.979 1.979 0 01.056-1.023L92.81 25.98l.478.332-.136.196-1.601-1.11zm3.505-.484c.178.124.37.175.574.155.208-.02.42-.115.635-.283.219-.169.439-.412.66-.73.22-.319.37-.61.45-.87.082-.261.095-.491.04-.691a.835.835 0 00-.346-.483.996.996 0 00-.617-.17c-.235.01-.476.09-.724.238-.243.148-.47.373-.679.675a2.34 2.34 0 00-.396.876 1.56 1.56 0 00.029.765c.076.225.2.398.374.518zm4.66 4.073a.814.814 0 01-.227-.302.604.604 0 01-.04-.36.854.854 0 01.208-.398l1.273-1.492a2.85 2.85 0 00.334-.48.823.823 0 00.119-.48c-.012-.159-.107-.313-.283-.463a2.201 2.201 0 00-.309-.219 1.458 1.458 0 00-.357-.15.853.853 0 00-.347-.028.45.45 0 00-.28.16l-.22-.188a.438.438 0 01.333-.171.475.475 0 01.329.11.53.53 0 01.179.311.398.398 0 01-.101.36c-.113.131-.235.192-.367.182a.546.546 0 01-.33-.128.496.496 0 01-.18-.312c-.015-.12.028-.239.13-.358a.563.563 0 01.335-.192c.14-.026.291-.018.454.022.165.038.333.103.502.194.171.09.332.197.481.325.304.26.487.506.548.742a.989.989 0 01-.039.668c-.088.21-.208.404-.36.582l-1.355 1.588a.55.55 0 00-.116.203c-.018.065.012.13.089.196.046.04.113.066.2.08a.52.52 0 00.243-.01l-.058.241a.968.968 0 01-.383-.013.967.967 0 01-.405-.22zm-1.545-1.318c-.286-.244-.453-.512-.5-.804-.044-.292.041-.563.255-.814.252-.295.579-.42.98-.373.404.044.84.266 1.309.666l.765.653-.132.155-.766-.653c-.193-.165-.384-.263-.57-.293a.946.946 0 00-.516.056 1.026 1.026 0 00-.388.28c-.094.11-.162.228-.205.355a.688.688 0 00-.024.368.623.623 0 00.218.333c.116.1.268.16.454.183.189.024.389-.007.6-.094.212-.084.412-.237.6-.457l.102.088c-.214.25-.448.434-.704.55a1.41 1.41 0 01-.762.132 1.33 1.33 0 01-.716-.331zm4.812 1.779c.177-.175.381-.33.61-.469a3.09 3.09 0 01.711-.318c.246-.073.478-.097.697-.073a.92.92 0 01.56.27.807.807 0 01.219.35.6.6 0 01-.145.607.555.555 0 01-.363.17.439.439 0 01-.355-.143.533.533 0 01-.167-.341.414.414 0 01.131-.325c.111-.11.231-.155.36-.136a.584.584 0 01.458.364.425.425 0 01.026.219.317.317 0 01-.096.186l-.168-.17a.279.279 0 00.087-.19.484.484 0 00-.038-.23.65.65 0 00-.137-.206.723.723 0 00-.438-.195 1.811 1.811 0 00-.614.045 2.682 2.682 0 00-1.24.684l-.098-.099zm1.637-1.424l-2.668 2.64.464.469-.17.168-1.406-1.422.169-.168.412.416 2.499-2.471-.412-.417.169-.168.943.953zm-.115 5.825c-.154-.18-.233-.35-.235-.513a.82.82 0 01.132-.452c.092-.136.199-.257.319-.36l2.95-2.54c.085.099.197.187.337.265.14.079.262.13.367.154l-3.255 2.803c-.165.141-.257.255-.278.342-.019.089.012.18.093.274a.515.515 0 00.348.165c.152.017.3.012.444-.016l.028.239c-.239.05-.461.056-.666.018-.204-.038-.399-.164-.584-.38zm1.962-3.567l.181-.156 1.478 1.717-.181.155-1.478-1.716zm3.465 3.774l-3.087 2.136.329.475-.197.136-1.091-1.578.196-.135.334.481 2.89-2-.333-.481.196-.136.763 1.102zm.402 2.725l-2.084 1.441.333.482-.196.136-1.091-1.577.196-.136.329.474 2.001-1.385c.2-.138.361-.263.484-.376.126-.112.203-.222.231-.33.029-.104.002-.217-.082-.338a.77.77 0 00-.431-.303 1.693 1.693 0 00-.605-.051 2.629 2.629 0 00-.626.132c-.2.068-.367.148-.503.242l-.081-.102c.152-.105.342-.202.57-.289a2.66 2.66 0 01.72-.165c.254-.025.496.003.727.082.231.08.424.232.581.458.159.231.236.44.229.628a.86.86 0 01-.202.525 2.326 2.326 0 01-.5.452zm1.405 2.03l-2.084 1.442.336.485-.197.136-1.093-1.581.196-.136.331.478 2.001-1.385c.2-.138.359-.267.476-.387a.73.73 0 00.215-.354.458.458 0 00-.092-.354.755.755 0 00-.434-.306 1.528 1.528 0 00-.59-.03 2.706 2.706 0 00-.614.15c-.194.075-.359.16-.495.253l-.091-.116c.152-.105.34-.205.563-.3.225-.092.46-.153.707-.183a1.6 1.6 0 01.717.068c.23.077.426.234.589.47.159.23.238.443.236.638a.903.903 0 01-.187.546c-.12.167-.283.322-.49.466zm-.744 4.552a1.994 1.994 0 01-.246-.99c.011-.336.112-.654.304-.952.195-.298.485-.548.868-.752.383-.204.748-.308 1.096-.313.351-.007.665.077.944.25.279.172.504.421.677.745.196.368.278.698.246.99-.03.294-.139.552-.326.773a2.35 2.35 0 01-.698.553l-1.396-2.624.211-.112.964 1.812a4.54 4.54 0 00.365-.219c.126-.083.236-.178.33-.284a.711.711 0 00.182-.352c.026-.129-.002-.27-.085-.427a.805.805 0 00-.365-.37.99.99 0 00-.5-.083 2.257 2.257 0 00-.593.143c-.206.08-.419.179-.639.295a4.887 4.887 0 00-.598.373 2.073 2.073 0 00-.432.426 1.006 1.006 0 00-.189.484.969.969 0 00.13.55c.169.317.381.537.636.66s.528.167.819.134l.13.245c-.352.06-.691.02-1.018-.121-.325-.142-.597-.42-.817-.834zm5.498 1.965l-3.465 1.44.221.533-.22.091-.736-1.77.22-.092.225.54 3.245-1.348-.224-.541.22-.092.514 1.239zm-.111 2.907l-2.34.973.226.545-.22.091-.74-1.779.221-.091.225.54 2.207-.917c.225-.093.411-.183.56-.27a.797.797 0 00.312-.29c.057-.104.054-.23-.007-.377a.917.917 0 00-.379-.44 1.652 1.652 0 00-.592-.223 2.532 2.532 0 00-.663-.025 2.06 2.06 0 00-.582.138l-.07-.135c.171-.071.381-.124.63-.158.248-.035.502-.035.76-.002.262.035.501.12.716.253.219.134.384.335.495.602.127.307.17.557.128.75a.806.806 0 01-.302.483 2.46 2.46 0 01-.585.333zm-1.698 3.768c-.073-.226-.078-.414-.017-.564a.823.823 0 01.299-.364c.138-.09.283-.159.435-.207l3.707-1.184c.04.124.109.249.207.376.098.126.19.221.277.284l-4.092 1.307c-.206.066-.336.135-.389.207-.052.074-.059.17-.022.289a.519.519 0 00.256.287c.134.076.272.129.415.16l-.067.23a1.72 1.72 0 01-.62-.244c-.173-.114-.303-.307-.389-.577zm3.2-2.516l.227-.072.689 2.157-.227.073-.689-2.158zm-2.585 4.563l1.257-.3.057.236a1.375 1.375 0 00-.722.86 1.213 1.213 0 00.171.976.77.77 0 00.3.267.596.596 0 00.405.033.582.582 0 00.381-.256c.082-.13.136-.286.164-.468.029-.18.052-.37.069-.57.021-.198.057-.391.107-.579.051-.184.137-.346.259-.485.121-.14.301-.238.54-.295.18-.043.363-.045.548-.006a1 1 0 01.493.27c.147.144.253.349.317.616a1.551 1.551 0 01-.107 1.007l.402.207.049.207-1.177.282-.057-.236a.968.968 0 00.403-.293 1.24 1.24 0 00.244-1.107.825.825 0 00-.148-.317.643.643 0 00-.253-.203.483.483 0 00-.314-.023.476.476 0 00-.327.253c-.07.132-.119.293-.148.481-.03.189-.057.387-.081.595a3.355 3.355 0 01-.119.604 1.277 1.277 0 01-.266.51.949.949 0 01-.522.299c-.25.06-.483.051-.697-.025a1.244 1.244 0 01-.551-.382 1.604 1.604 0 01-.319-.66 1.53 1.53 0 01.132-1.07l-.442-.225-.048-.203zm1.129 26.577c.145-.569.411-1.032.798-1.39a2.91 2.91 0 011.407-.707c.548-.114 1.135-.091 1.76.068.625.16 1.151.42 1.578.783.427.363.725.794.893 1.294.171.5.184 1.035.038 1.604-.07.277-.186.531-.346.762a2.21 2.21 0 01-.571.57l.354.525-.053.207-1.723-.44.06-.236c.328.06.628.035.901-.074a1.72 1.72 0 00.694-.508 1.97 1.97 0 00.398-.79c.093-.364.089-.694-.012-.988a1.868 1.868 0 00-.509-.78 3.387 3.387 0 00-.868-.579 5.929 5.929 0 00-1.079-.387 5.908 5.908 0 00-1.133-.177c-.374-.02-.721.01-1.04.093a1.9 1.9 0 00-.824.439c-.227.21-.387.498-.48.863-.069.269-.092.523-.069.761.022.242.081.46.178.655.099.198.23.367.394.508.164.143.353.25.568.32l-.06.235-1.724-.44.053-.206.578-.247a2.306 2.306 0 01-.236-.812c-.031-.3-.006-.61.075-.926zm.527 4.833c.234.085.462.202.685.35.226.15.423.32.591.507.171.192.292.391.364.6a.915.915 0 01-.005.621.811.811 0 01-.224.348.595.595 0 01-.919-.127.439.439 0 01-.022-.383.523.523 0 01.237-.296.414.414 0 01.349-.02c.147.053.239.142.277.266a.586.586 0 01-.134.57.43.43 0 01-.186.117.324.324 0 01-.21-.007l.082-.224c.071.026.14.025.209-.002a.49.49 0 00.192-.134.653.653 0 00.128-.212.726.726 0 00-.01-.479 1.79 1.79 0 00-.304-.536 2.652 2.652 0 00-1.147-.83l.047-.13zm1.987.872l-3.526-1.286-.226.62-.224-.083.685-1.879.224.082-.2.55 3.301 1.205.201-.55.224.081-.459 1.26zm-5.617 2.991c.153-.33.366-.595.64-.793a1.85 1.85 0 01.943-.334c.355-.023.73.056 1.123.239.394.182.698.41.912.685.217.276.34.577.371.903.03.327-.032.657-.186.99-.175.378-.389.643-.641.794a1.386 1.386 0 01-.813.207 2.347 2.347 0 01-.862-.223l1.249-2.697.216.1-.862 1.862c.12.056.252.11.395.16.142.05.284.08.426.092.14.013.27-.01.39-.068a.637.637 0 00.289-.325.81.81 0 00.076-.515 1.004 1.004 0 00-.237-.45 2.237 2.237 0 00-.471-.385 6.01 6.01 0 00-.622-.331 4.91 4.91 0 00-.658-.252 2.075 2.075 0 00-.6-.087 1.007 1.007 0 00-.501.141.972.972 0 00-.359.436c-.151.326-.198.627-.142.905.056.278.185.523.387.734l-.117.252a1.78 1.78 0 01-.518-.885c-.082-.345-.025-.73.172-1.155zm-2.796 5.276a.809.809 0 01.256-.278c.1-.07.216-.104.347-.105a.853.853 0 01.429.133l1.698.982c.18.104.357.185.531.242.175.062.34.072.494.03.154-.04.289-.161.405-.361.059-.103.112-.218.159-.345.045-.124.073-.25.083-.378a.842.842 0 00-.035-.346.45.45 0 00-.208-.246l.145-.251a.438.438 0 01.229.297.475.475 0 01-.048.344.532.532 0 01-.275.232.397.397 0 01-.371-.035c-.15-.087-.232-.196-.246-.328a.54.54 0 01.34-.58c.115-.037.24-.016.376.062a.565.565 0 01.25.295c.05.133.07.283.06.451-.008.17-.041.346-.101.529a2.55 2.55 0 01-.232.532c-.2.345-.41.57-.63.673a.988.988 0 01-.664.082 2.196 2.196 0 01-.638-.25l-1.807-1.045a.548.548 0 00-.221-.077c-.067-.006-.126.035-.176.123a.388.388 0 00-.042.211c.001.091.018.17.053.237l-.248-.013a.97.97 0 01-.056-.379.953.953 0 01.143-.438zm1.017-1.758c.188-.325.422-.538.7-.637.279-.096.562-.061.847.104.336.194.517.493.544.896.03.405-.11.874-.418 1.407l-.504.872-.177-.103.504-.87c.128-.221.19-.426.186-.616a.948.948 0 00-.149-.497 1.028 1.028 0 00-.345-.33 1.087 1.087 0 00-.386-.138.692.692 0 00-.367.044.628.628 0 00-.289.274.84.84 0 00-.097.48c.011.19.077.38.2.572.122.194.308.363.558.508l-.067.117a2.046 2.046 0 01-.669-.593 1.41 1.41 0 01-.267-.726 1.327 1.327 0 01.196-.764zm-2.529 4.117c.134-.195.28-.314.436-.358a.816.816 0 01.47.014c.156.054.299.127.43.217l3.205 2.208c-.073.107-.13.239-.171.394-.04.155-.058.286-.055.393l-3.537-2.437c-.179-.123-.313-.183-.402-.182-.09.005-.171.058-.242.16a.52.52 0 00-.071.378c.022.152.065.294.129.426l-.224.088a1.735 1.735 0 01-.187-.64c-.015-.207.058-.427.219-.66zm3.948.993l.196.135-1.285 1.865-.196-.135 1.285-1.865zm-1.39 4.956a.517.517 0 01.735-.087.502.502 0 01.194.344.506.506 0 01-.104.387.493.493 0 01-.35.194.497.497 0 01-.381-.104.52.52 0 01-.094-.734zm-1.444-.632l-2.958-2.31-.361.463-.188-.147 1.202-1.54.188.147-.361.462 2.771 2.163.36-.462.188.147-.841 1.077zm-1.815 2.199l-2.771-2.531-.389.426-.176-.161 1.293-1.416.176.161-.395.432 2.595 2.371.395-.432.176.161-.904.989zm-2.683 1.129l-1.87-1.71-.399.436-.176-.161 1.3-1.422.176.161-.395.432 1.765 1.613c.179.164.34.295.481.393.144.1.275.153.395.16.119.007.232-.048.339-.166a.913.913 0 00.237-.529c.026-.204.01-.414-.047-.631a2.488 2.488 0 00-.258-.612 2.02 2.02 0 00-.371-.468l.093-.121a2.88 2.88 0 01.733 1.192c.079.253.103.504.074.755-.03.256-.142.49-.337.704-.225.245-.433.39-.626.433a.806.806 0 01-.565-.069 2.518 2.518 0 01-.549-.39zm-5.98-1.222a3.88 3.88 0 01.606-.447 2.14 2.14 0 01.602-.258 1.17 1.17 0 01.557-.008.906.906 0 01.465.295.932.932 0 01.239.456c.023.157.016.309-.024.456a1.45 1.45 0 01-.404.669l-.133.118a.98.98 0 00.083-.585 1.08 1.08 0 00-.27-.538.896.896 0 00-.448-.275 1.063 1.063 0 00-.58.028 1.719 1.719 0 00-.624.376 2.27 2.27 0 00-.391.448 1.437 1.437 0 00-.215.476 1.013 1.013 0 00.242.924.692.692 0 00.371.227c.14.03.287.019.441-.033.153-.051.299-.139.44-.264a106.109 106.109 0 00.544-.485l.23-.205c.291-.26.56-.427.806-.503a.565.565 0 01.632.18c.104.117.163.25.177.401a1.1 1.1 0 01-.071.481 2.103 2.103 0 01-.268.495 2.74 2.74 0 01-.404.447l-.103-.135a1.43 1.43 0 00.208-.237c.071-.094.131-.196.18-.306a.88.88 0 00.085-.303.291.291 0 00-.07-.228c-.1-.112-.219-.128-.356-.048a3.274 3.274 0 00-.47.36l-.214.191c-.067.063-.133.124-.198.182-.062.06-.125.118-.188.173a3.013 3.013 0 01-.401.3 1.357 1.357 0 01-.478.188.967.967 0 01-.532-.055c-.186-.071-.378-.216-.574-.436a1.363 1.363 0 01-.343-.653 1.39 1.39 0 01.038-.674 2.14 2.14 0 01.317-.636c.143-.205.308-.391.496-.559zm2.566 2.619c.132-.118.282-.219.451-.303.168-.085.346-.138.531-.16a1.26 1.26 0 01.553.059c.183.066.354.189.514.368.159.179.261.362.303.549a1.2 1.2 0 01-.004.556 1.604 1.604 0 01-.22.51 1.98 1.98 0 01-.797.71 1.496 1.496 0 01-.522.151 1.14 1.14 0 01-.54-.071 1.283 1.283 0 01-.507-.367 1.31 1.31 0 01-.31-.549 1.21 1.21 0 01-.008-.545 1.51 1.51 0 01.21-.501c.099-.154.214-.29.346-.407zm.159.178a.642.642 0 00-.225.387.844.844 0 00.072.459 1.8 1.8 0 00.316.479c.143.16.289.283.44.369a.816.816 0 00.445.121.633.633 0 00.412-.176.633.633 0 00.223-.39.857.857 0 00-.066-.458 1.793 1.793 0 00-.317-.48 3.015 3.015 0 00-.414-.392.675.675 0 00-.415-.153c-.144.004-.301.082-.471.234zm-.938 2.521a.469.469 0 01.298-.115.396.396 0 01.32.151c.097.108.13.215.102.322a.531.531 0 01-.16.271.542.542 0 01-.29.131.3.3 0 01-.29-.103l.175-.156c.07.078.165.122.288.133a.464.464 0 00.355-.136.93.93 0 00.302-.705c.001-.168-.057-.361-.173-.578l.21-.019c.122.224.182.433.179.625-.003.192-.041.36-.115.504a1.097 1.097 0 01-.237.333.746.746 0 01-.346.18.725.725 0 01-.362-.008.553.553 0 01-.282-.167c-.123-.139-.17-.265-.141-.38a.554.554 0 01.167-.283zm-3.729 7.202l-.135-.197.718-.488-2.695-3.966a7.585 7.585 0 01-.152-.531 3.098 3.098 0 01-.088-.633 1.517 1.517 0 01.096-.621c.076-.198.216-.367.422-.507a1.025 1.025 0 011.05-.106.878.878 0 01.345.291c.068.1.107.198.116.293a.485.485 0 01-.208.451.528.528 0 01-.212.082.477.477 0 01-.25-.03.494.494 0 01-.229-.196.462.462 0 01-.093-.283.436.436 0 01.081-.244.621.621 0 01.198-.172.177.177 0 01.078.006.191.191 0 01.076.058.825.825 0 00-.24-.083.828.828 0 00-.272.001.726.726 0 00-.269.114c-.172.117-.27.251-.295.4-.026.151.014.337.122.557.107.225.274.503.5.836l2.597 3.822.933-.634.134.197-2.329 1.583zm-7.175-3.44a.81.81 0 01.362-.11.607.607 0 01.352.086.85.85 0 01.302.332l.963 1.709c.103.181.214.341.335.479.12.141.256.234.41.277.154.042.331.007.533-.107a2.27 2.27 0 00.312-.215 1.47 1.47 0 00.264-.283.858.858 0 00.145-.317.448.448 0 00-.055-.317l.254-.143a.439.439 0 01.045.373.48.48 0 01-.215.271.528.528 0 01-.355.06.399.399 0 01-.302-.218c-.085-.151-.1-.287-.046-.408a.546.546 0 01.234-.266.498.498 0 01.354-.06c.118.026.215.108.292.244a.562.562 0 01.066.381c-.024.14-.084.279-.178.419-.092.142-.21.276-.354.404-.143.13-.3.244-.471.34-.348.196-.643.283-.885.26a.993.993 0 01-.614-.267 2.21 2.21 0 01-.423-.538l-1.025-1.818a.556.556 0 00-.15-.18c-.055-.038-.127-.033-.215.017a.396.396 0 00-.144.161.514.514 0 00-.074.231l-.207-.138a.97.97 0 01.144-.355.964.964 0 01.346-.304zm1.77-.998c.327-.184.636-.249.926-.193.29.059.515.232.677.52.19.337.195.687.013 1.048-.18.364-.539.697-1.075 1l-.877.494-.1-.178.877-.494c.221-.125.379-.27.472-.435a.948.948 0 00.124-.504 1.028 1.028 0 00-.13-.46 1.083 1.083 0 00-.262-.315.683.683 0 00-.338-.148.623.623 0 00-.388.089.834.834 0 00-.328.364 1.175 1.175 0 00-.118.595c.007.229.08.469.223.721l-.117.066a2.052 2.052 0 01-.276-.851 1.413 1.413 0 01.14-.761c.113-.227.3-.413.556-.558zm-3.819-.237l.097.218-.535.238 2.31 5.194.535-.238.097.218-1.249.555-.456-1.027a1.95 1.95 0 01-.14 1.012 1.24 1.24 0 01-.656.658c-.273.121-.564.16-.874.118a1.832 1.832 0 01-.888-.384c-.282-.213-.51-.518-.687-.915-.176-.396-.25-.772-.221-1.127.027-.351.13-.657.308-.92.176-.259.4-.449.672-.57.307-.136.616-.152.929-.047.312.104.594.297.846.578L87.334 113l-.531.236-.097-.218 1.78-.792zm-1.405 3.247a.835.835 0 00-.43.41c-.09.188-.12.418-.088.689.03.275.124.589.282.943.157.354.327.633.51.837.18.205.37.336.569.393a.836.836 0 00.592-.045.999.999 0 00.465-.44c.114-.206.172-.453.173-.742 0-.284-.075-.595-.224-.93-.15-.336-.33-.601-.543-.794a1.566 1.566 0 00-.669-.372.995.995 0 00-.637.051zm-5.916 1.877a.818.818 0 01.376-.037.6.6 0 01.329.152.852.852 0 01.232.384l.616 1.862c.066.198.144.376.236.535a.82.82 0 00.35.35c.142.072.323.072.543-.001.112-.037.228-.088.347-.152.117-.062.221-.138.314-.227a.856.856 0 00.203-.282.449.449 0 00.008-.322l.276-.092a.44.44 0 01-.027.375.475.475 0 01-.264.224.53.53 0 01-.36-.009.396.396 0 01-.254-.272c-.055-.165-.043-.301.034-.409a.544.544 0 01.28-.216.494.494 0 01.36.009c.11.049.19.147.24.296a.563.563 0 01-.01.387c-.05.132-.135.258-.255.376-.118.122-.26.231-.426.329-.165.1-.34.181-.527.243-.38.125-.685.153-.918.084a.987.987 0 01-.551-.38 2.197 2.197 0 01-.311-.61l-.656-1.981a.543.543 0 00-.113-.205c-.047-.049-.118-.057-.214-.025a.395.395 0 00-.172.13.514.514 0 00-.117.212l-.177-.175a.966.966 0 01.21-.32.968.968 0 01.398-.233zm1.928-.637c.357-.118.672-.122.947-.012.272.114.46.328.563.641.122.368.06.712-.188 1.031-.247.323-.663.581-1.248.774l-.956.316-.064-.193.956-.317c.241-.079.424-.192.547-.336.12-.143.193-.3.219-.47a1.025 1.025 0 00-.039-.476 1.095 1.095 0 00-.197-.36.692.692 0 00-.302-.211.628.628 0 00-.398.013.832.832 0 00-.392.294 1.178 1.178 0 00-.23.561 1.56 1.56 0 00.079.751l-.128.042a2.053 2.053 0 01-.106-.888c.03-.275.125-.515.283-.72.156-.201.374-.348.654-.44zm-3.653 5.337l-.83-3.66-.562.128-.053-.233 1.87-.424.053.233-.571.129.777 3.428.572-.13.052.233-1.307.296zm-2.846-.604l-.56-2.471-.576.13-.053-.232 1.879-.427.053.233-.571.13.528 2.331c.054.237.111.436.172.598a.787.787 0 00.232.356c.094.074.218.093.373.058a.916.916 0 00.497-.3c.138-.152.245-.334.322-.544.074-.21.12-.426.137-.65.016-.22.003-.419-.037-.596l.145-.047c.04.181.057.397.049.648a2.848 2.848 0 01-.128.75c-.08.252-.203.473-.37.662a1.24 1.24 0 01-.678.385c-.325.074-.578.073-.761-.001a.805.805 0 01-.425-.38 2.45 2.45 0 01-.228-.633zm-1.934 1.807c.035.234.075.422.119.561.044.143.091.261.14.356.047.099.096.198.146.299a2.457 2.457 0 01.166.466l.012.078c.025.169.004.303-.063.404a.395.395 0 01-.288.183.394.394 0 01-.33-.091c-.093-.077-.152-.199-.177-.368l-.012-.077a2.46 2.46 0 01.023-.495l.056-.329a2.69 2.69 0 00.026-.381 3.796 3.796 0 00-.05-.572l.232-.034zm-2.214-4.033l.118 1.288-.242.022a1.379 1.379 0 00-.748-.838 1.145 1.145 0 00-.561-.088 1.236 1.236 0 00-.43.118.785.785 0 00-.307.26.595.595 0 00-.09.396.582.582 0 00.2.413c.116.099.262.176.439.229.173.054.358.104.554.15.193.049.379.112.557.188.176.077.324.186.444.326s.192.332.214.577c.017.184-.007.365-.072.542a.982.982 0 01-.338.45c-.162.125-.38.2-.654.225a1.398 1.398 0 01-.532-.047 1.514 1.514 0 01-.45-.202l-.262.368-.212.02-.11-1.206.241-.022a.967.967 0 00.233.44c.12.135.27.24.451.316.181.076.385.104.61.084a.839.839 0 00.334-.101c.1-.055.178-.13.237-.222a.481.481 0 00.068-.307.476.476 0 00-.204-.36 1.545 1.545 0 00-.455-.216 18.59 18.59 0 00-.577-.164 3.35 3.35 0 01-.581-.204 1.295 1.295 0 01-.467-.336.95.95 0 01-.221-.559 1.203 1.203 0 01.124-.687c.104-.201.256-.365.456-.491.2-.123.434-.197.699-.221a1.533 1.533 0 011.041.283l.285-.405.208-.019zm-6.772.457l-.084 4.438a2.9 2.9 0 01-.21 1.055 1.862 1.862 0 01-.588.783c-.258.198-.575.293-.951.286a1.208 1.208 0 01-.583-.141.928.928 0 01-.354-.337.743.743 0 01-.114-.401c.003-.177.056-.31.16-.401a.5.5 0 01.349-.128.615.615 0 01.22.048.469.469 0 01.184.155.47.47 0 01.068.279.427.427 0 01-.167.353.525.525 0 01-.328.12.547.547 0 01-.224-.057.458.458 0 01-.184-.146.342.342 0 01-.07-.223l.235.004a.48.48 0 00.098.297.763.763 0 00.286.24c.12.063.263.096.428.099.232.005.416-.056.555-.18.138-.122.238-.307.3-.555.063-.244.098-.55.105-.918l.088-4.685.78.015zm.754.014l-.004.238-2.555-.047.004-.239 2.555.048zm-.07 3.752l-.004.239-2.73-.051.005-.239 2.73.051zm-4.83 1.572a.515.515 0 01.477.565.496.496 0 01-.18.351.504.504 0 01-.381.127.497.497 0 01-.355-.186.496.496 0 01-.122-.375.518.518 0 01.56-.482zm-.267-1.553l.3-3.742-.584-.047.02-.237 1.945.156-.019.238-.584-.047-.28 3.503.583.047-.019.238-1.362-.109zm-2.846-.307l.587-3.707-.57-.09.038-.236 1.894.3-.037.236-.58-.092-.55 3.472.58.091-.038.236-1.324-.21zm-2.42-1.618l.397-2.502-.583-.093.038-.235 1.903.301-.038.236-.578-.092-.374 2.362c-.038.24-.06.446-.063.618a.79.79 0 00.083.417c.06.103.168.167.325.192.198.032.389 0 .573-.093a1.65 1.65 0 00.5-.387 2.53 2.53 0 00.37-.552c.095-.199.157-.388.186-.568l.152.011a2.572 2.572 0 01-.195.619 2.8 2.8 0 01-.397.649 1.804 1.804 0 01-.59.478 1.24 1.24 0 01-.772.106c-.329-.052-.564-.147-.706-.283a.812.812 0 01-.253-.511 2.43 2.43 0 01.023-.673zm-3.194-3.658c.353.092.65.256.894.491.24.236.404.526.493.87.086.345.073.728-.037 1.148-.11.419-.283.758-.515 1.017a1.69 1.69 0 01-.824.523 1.894 1.894 0 01-1.008-.009c-.402-.106-.7-.27-.893-.491a1.386 1.386 0 01-.346-.764 2.353 2.353 0 01.068-.889l2.874.757-.061.231-1.985-.523a4.482 4.482 0 00-.087.417c-.024.149-.03.294-.016.436.011.14.056.264.135.372.077.107.2.183.371.227.196.052.37.047.52-.015a.996.996 0 00.4-.312c.114-.147.213-.324.298-.532.081-.206.154-.429.217-.67.063-.24.107-.471.133-.692a2.077 2.077 0 00-.02-.606 1.004 1.004 0 00-.227-.468.975.975 0 00-.492-.278c-.347-.091-.652-.085-.916.019a1.464 1.464 0 00-.655.51l-.268-.071c.195-.298.455-.52.78-.665.325-.142.714-.153 1.167-.033zm-2.644-.74l-.43 1.22-.228-.081a1.376 1.376 0 00-.331-1.073 1.21 1.21 0 00-.913-.385.777.777 0 00-.388.107.594.594 0 00-.247.323.579.579 0 00.01.458c.064.139.165.27.303.392.135.121.282.244.441.367.155.125.298.26.429.404.127.143.217.303.268.48.05.178.035.382-.046.614a1.225 1.225 0 01-.292.463.976.976 0 01-.494.268c-.2.046-.43.024-.69-.068a1.412 1.412 0 01-.463-.264 1.515 1.515 0 01-.325-.372l-.392.226-.2-.071.401-1.142.23.081a.968.968 0 00.027.497 1.254 1.254 0 00.798.805.824.824 0 00.346.048.644.644 0 00.308-.103.482.482 0 00.19-.251.478.478 0 00-.035-.412 1.538 1.538 0 00-.324-.385 16.734 16.734 0 00-.456-.391 3.409 3.409 0 01-.444-.427 1.281 1.281 0 01-.284-.5.949.949 0 01.032-.601c.086-.243.219-.433.4-.572.178-.14.384-.225.619-.256.233-.028.476.002.727.09.18.063.34.155.482.276.141.123.256.261.346.416l.428-.25.197.069zm-5.025-1.884c.217.094.362.214.435.359a.82.82 0 01.077.465 1.806 1.806 0 01-.131.463l-1.555 3.568a1.215 1.215 0 00-.419-.092 1.424 1.424 0 00-.397.021l1.716-3.938c.087-.199.12-.342.102-.429-.022-.088-.09-.157-.204-.207a.511.511 0 00-.384.003 1.42 1.42 0 00-.394.207l-.129-.203c.195-.149.392-.251.592-.305.2-.055.431-.026.69.088zm-.219 4.065l-.095.218-2.077-.904.096-.219 2.076.905zm-6.29-7.482c.117.068.21.154.277.257.068.1.103.216.104.347a.85.85 0 01-.135.428l-.989 1.694c-.105.18-.186.357-.244.531a.827.827 0 00-.032.494c.04.154.16.289.36.406.103.06.217.113.344.16.124.046.25.074.377.085.124.012.24.001.347-.034a.45.45 0 00.247-.207l.25.146a.439.439 0 01-.298.228.474.474 0 01-.343-.05.524.524 0 01-.23-.275.397.397 0 01.035-.371c.087-.15.197-.232.329-.245a.545.545 0 01.347.067.497.497 0 01.231.275c.037.116.016.241-.063.376a.566.566 0 01-.296.249 1.088 1.088 0 01-.451.058 2.037 2.037 0 01-.528-.102 2.607 2.607 0 01-.531-.235c-.345-.201-.569-.412-.671-.633a.988.988 0 01-.08-.664 2.23 2.23 0 01.252-.637l1.052-1.803a.552.552 0 00.078-.22c.006-.067-.035-.126-.122-.177a.396.396 0 00-.211-.043.517.517 0 00-.237.053l.014-.248a.953.953 0 01.379-.055.954.954 0 01.438.145zm1.754 1.023c.324.19.536.424.635.703.094.279.058.561-.108.846-.195.335-.495.515-.898.541-.405.028-.874-.113-1.406-.424l-.87-.507.104-.176.869.507c.22.129.424.191.614.188a.949.949 0 00.498-.147 1.03 1.03 0 00.331-.344c.073-.125.12-.253.14-.386a.687.687 0 00-.043-.366.621.621 0 00-.273-.29.838.838 0 00-.48-.099c-.19.01-.38.076-.572.198a1.56 1.56 0 00-.51.556l-.117-.068c.166-.284.365-.507.596-.667a1.41 1.41 0 01.727-.264c.253-.016.508.051.763.199zm-1.716-3.417l-.14.194-.474-.343-3.33 4.607.475.343-.14.193-1.107-.8.658-.911a1.948 1.948 0 01-.944.388 1.244 1.244 0 01-.9-.237 1.587 1.587 0 01-.54-.696 1.842 1.842 0 01-.115-.961c.043-.351.192-.702.446-1.054.254-.351.542-.604.863-.757.317-.153.634-.218.95-.197.313.023.59.121.831.295.272.197.441.457.508.78a1.98 1.98 0 01-.075 1.022l1.786-2.473-.47-.34.139-.194 1.58 1.141zm-3.513.417a.832.832 0 00-.57-.166c-.209.017-.422.107-.64.271a3.25 3.25 0 00-.674.717c-.227.315-.383.602-.468.862-.086.258-.104.488-.053.689a.837.837 0 00.337.49c.17.123.375.184.613.181.235-.005.478-.08.729-.223.246-.144.477-.364.692-.662.215-.298.353-.587.413-.868a1.564 1.564 0 00-.014-.766.995.995 0 00-.365-.525zm-4.58-4.162a.81.81 0 01.221.306.605.605 0 01.034.361.851.851 0 01-.216.394l-1.302 1.467a2.851 2.851 0 00-.343.473.824.824 0 00-.128.478c.01.159.1.315.274.469.088.079.19.153.305.224.113.069.23.122.354.157a.85.85 0 00.346.035.449.449 0 00.283-.155l.217.193a.437.437 0 01-.337.164.477.477 0 01-.327-.115.53.53 0 01-.172-.316.398.398 0 01.107-.357c.116-.129.24-.188.371-.175a.54.54 0 01.328.134.49.49 0 01.172.315c.014.12-.032.239-.135.356a.569.569 0 01-.34.186 1.08 1.08 0 01-.453-.031 2.064 2.064 0 01-.498-.204 2.576 2.576 0 01-.475-.335c-.299-.264-.476-.515-.534-.751a.988.988 0 01.053-.667c.092-.209.215-.401.37-.576l1.386-1.561c.06-.067.1-.134.12-.201.019-.065-.01-.131-.085-.198a.4.4 0 00-.2-.083.518.518 0 00-.242.005l.063-.24a.95.95 0 01.382.02.964.964 0 01.401.228zm1.52 1.347c.28.25.442.521.484.814.038.292-.052.562-.271.809-.257.29-.586.408-.987.354-.403-.052-.834-.282-1.295-.691l-.753-.668.135-.152.753.668c.19.168.379.27.565.304a.954.954 0 00.517-.046 1.083 1.083 0 00.605-.624.686.686 0 00.03-.367.623.623 0 00-.21-.338.827.827 0 00-.451-.191 1.165 1.165 0 00-.601.082 1.56 1.56 0 00-.61.445l-.1-.089a2.06 2.06 0 01.714-.538c.254-.111.509-.15.765-.116.252.034.488.149.71.344zm-4.778-1.871a3.19 3.19 0 01-.619.457 3.12 3.12 0 01-.716.305c-.248.067-.48.087-.699.059a.914.914 0 01-.554-.28.811.811 0 01-.213-.356.595.595 0 01.523-.766.439.439 0 01.352.15.523.523 0 01.16.344.414.414 0 01-.137.322c-.113.108-.233.151-.362.129a.556.556 0 01-.321-.167.591.591 0 01-.13-.206.424.424 0 01-.022-.218.323.323 0 01.1-.185l.164.173a.282.282 0 00-.09.188.488.488 0 00.034.231.63.63 0 00.133.209.72.72 0 00.433.204c.184.025.389.013.615-.034a2.66 2.66 0 00.663-.242c.22-.113.416-.252.59-.418l.096.101zm-1.664 1.392l2.718-2.588-.454-.478.173-.164 1.379 1.449-.173.164-.404-.424-2.546 2.423.404.424-.172.165-.925-.971zm.227-5.821c.151.182.226.355.226.517a.817.817 0 01-.141.449 1.821 1.821 0 01-.326.355l-2.998 2.482a1.223 1.223 0 00-.332-.272 1.472 1.472 0 00-.364-.161l3.309-2.739c.167-.138.262-.251.284-.337.02-.088-.009-.18-.088-.276a.512.512 0 00-.344-.171 1.437 1.437 0 00-.445.007l-.024-.239a1.7 1.7 0 01.667-.005c.203.041.395.171.576.39zm-2.03 3.528l-.184.152-1.444-1.744.183-.153 1.445 1.745zm-3.392-3.84l3.127-2.076-.319-.481.199-.132 1.06 1.598-.198.132-.324-.488-2.928 1.944.324.488-.2.132-.74-1.117zm-.35-2.732l2.112-1.401-.324-.488.199-.132 1.06 1.598-.198.132-.32-.481-2.028 1.346a4.516 4.516 0 00-.49.367c-.129.11-.208.218-.238.325-.031.104-.006.218.075.34.1.15.241.254.426.312.183.056.384.076.604.063.216-.015.425-.056.628-.12.2-.065.37-.142.507-.233l.08.103a2.708 2.708 0 01-.576.278c-.23.083-.47.134-.723.152a1.706 1.706 0 01-.725-.097c-.23-.084-.42-.24-.572-.469-.155-.234-.227-.444-.217-.632.01-.19.08-.364.212-.52.13-.156.3-.303.509-.443zm-1.365-2.057l2.111-1.401-.326-.492.199-.132 1.063 1.602-.199.132-.321-.485-2.028 1.347c-.203.134-.364.26-.484.378a.728.728 0 00-.22.35.454.454 0 00.084.355.753.753 0 00.428.315c.18.05.376.064.59.04.21-.022.416-.068.616-.138.196-.071.362-.152.5-.243l.089.118a3.16 3.16 0 01-.569.289 2.718 2.718 0 01-.71.17 1.596 1.596 0 01-.716-.083 1.17 1.17 0 01-.58-.48c-.155-.234-.23-.448-.223-.643a.9.9 0 01.197-.542c.123-.165.29-.317.5-.457zm.832-4.537c.165.325.24.657.227.994a1.848 1.848 0 01-.322.947c-.201.294-.496.539-.883.735-.387.197-.754.294-1.102.292-.35 0-.663-.09-.939-.268a1.905 1.905 0 01-.662-.759c-.189-.37-.264-.702-.227-.994.035-.293.149-.549.34-.766a2.35 2.35 0 01.71-.54l1.345 2.65-.213.108-.93-1.83a4.55 4.55 0 00-.368.212c-.128.081-.24.174-.337.278a.706.706 0 00-.188.348c-.029.128-.003.271.077.428.091.181.21.307.357.379a.997.997 0 00.5.092c.184-.013.383-.057.594-.132a5.853 5.853 0 001.25-.643c.18-.131.327-.27.44-.419a.998.998 0 00.199-.48.973.973 0 00-.12-.553c-.162-.32-.37-.543-.623-.671a1.466 1.466 0 00-.816-.15l-.125-.248a1.778 1.778 0 011.015.141c.322.148.589.431.8.85zm-5.46-2.07l3.494-1.373-.212-.537.222-.087.702 1.784-.222.088-.214-.545-3.271 1.286.214.545-.222.087-.49-1.248zm.168-2.905l2.359-.927-.216-.55.222-.087.705 1.793-.222.088-.215-.546-2.225.875a4.723 4.723 0 00-.564.26.792.792 0 00-.318.283c-.059.104-.059.23 0 .378a.92.92 0 00.37.446c.172.113.368.191.587.235.219.042.44.055.663.038.22-.018.415-.06.584-.127l.068.137a2.573 2.573 0 01-.632.146c-.25.03-.503.025-.761-.014a1.8 1.8 0 01-.71-.266 1.24 1.24 0 01-.484-.612c-.121-.31-.16-.56-.114-.752a.808.808 0 01.312-.477c.16-.122.357-.229.591-.321zm1.77-3.734c.068.227.07.415.006.564a.817.817 0 01-.306.358 1.81 1.81 0 01-.438.199l-3.73 1.112a1.232 1.232 0 00-.2-.38 1.451 1.451 0 00-.271-.29l4.116-1.227c.208-.062.339-.129.393-.2.054-.072.063-.169.027-.288a.516.516 0 00-.25-.292 1.436 1.436 0 00-.412-.167l.072-.23c.24.053.444.138.615.256.171.118.297.313.378.585zm-3.248 2.454l-.228.068-.648-2.17.229-.069.647 2.17zm2.672-4.513l-1.263.277-.052-.238a1.376 1.376 0 00.738-.846 1.216 1.216 0 00-.152-.98.782.782 0 00-.295-.272.596.596 0 00-.404-.04.58.58 0 00-.386.249 1.207 1.207 0 00-.173.464 8.144 8.144 0 00-.08.568c-.025.198-.064.39-.118.577a1.224 1.224 0 01-.268.48c-.124.137-.306.232-.546.285a1.23 1.23 0 01-.548-.005.985.985 0 01-.487-.28c-.145-.146-.246-.353-.305-.621a1.423 1.423 0 01-.02-.534c.025-.17.074-.328.146-.471l-.398-.215-.045-.208 1.182-.259.052.238a.968.968 0 00-.408.284 1.24 1.24 0 00-.265 1.102.834.834 0 00.14.32.666.666 0 00.25.208c.096.044.2.054.313.029a.479.479 0 00.333-.246 1.55 1.55 0 00.157-.479c.033-.188.064-.385.093-.593a3.33 3.33 0 01.13-.601c.057-.197.15-.365.276-.505a.948.948 0 01.527-.289 1.21 1.21 0 011.24.43c.147.184.25.406.306.666.041.187.048.372.02.556a1.678 1.678 0 01-.172.513l.437.233.045.203zm17.796 6.444l.974 2.998h3.152l-2.55 1.853.974 2.998-2.55-1.853-2.55 1.853.973-2.998-2.55-1.853h3.153l.974-2.998zm15.909 0l.975 2.998h3.152l-2.55 1.853.974 2.998-2.55-1.853-2.551 1.853.974-2.998-2.55-1.853H48.2l.974-2.998zm15.91 0l.974 2.998h3.153l-2.55 1.853.973 2.998-2.55-1.853-2.55 1.853.974-2.998-2.55-1.853h3.152l.974-2.998zm15.91 0l.974 2.998h3.152l-2.55 1.853.974 2.998-2.55-1.853-2.55 1.853.973-2.998-2.55-1.853h3.153l.974-2.998zm15.909 0l.975 2.998h3.152l-2.55 1.853.974 2.998-2.55-1.853-2.551 1.853.974-2.998-2.55-1.853h3.152l.974-2.998z" fill="var(--fill-0, white)"/></svg>